<svg width="1024" height="107" viewBox="0 0 1024 107" fill="none" xmlns="http://www.w3.org/2000/svg">
<path d="M6.04798 34.692C6.04798 28.98 4.45198 24.864 -1.94311e-05 24.864V24.024H12.768L33.768 64.68V34.692C33.768 24.864 23.772 24.864 19.32 24.864V24.024H41.328V24.864C36.792 24.864 35.448 28.98 35.448 34.692V82.824H33.768L7.81198 32.592C7.72798 33.264 7.72798 33.936 7.72798 34.692V72.072C7.72798 81.984 17.724 81.984 22.176 81.984V82.824H0.167981V81.984C4.70398 81.984 6.04798 77.784 6.04798 72.072V34.692ZM61.4676 71.988C61.4676 63 60.2916 60.816 52.3116 60.648C49.8756 66.108 48.1116 71.064 48.1116 75.012C48.1116 79.38 50.2116 81.9 53.9076 81.9C58.5276 81.9 61.4676 78.036 61.4676 71.988ZM62.3076 46.788H62.5596C62.5596 54.936 63.5676 59.052 69.1116 60.144L63.3156 34.776C63.2316 34.44 63.1476 34.104 62.9796 33.684C60.7116 43.008 56.0076 52.332 52.4796 60.396C61.0476 60.312 62.3076 56.616 62.3076 46.788ZM54.4956 24.024H66.3396C69.1116 24.024 70.7076 25.368 71.2956 28.056L80.2836 72.072C80.9556 75.264 84.3996 81.984 89.6916 81.984V82.824H67.6836V81.984C72.4716 81.984 72.7236 75.684 71.8836 72.072L69.2796 60.9C64.1556 61.656 63.3156 64.428 63.1476 71.988C63.1476 78.708 59.3676 83.58 54.1596 83.58C49.6236 83.58 46.3476 79.968 46.3476 75.096C46.3476 65.604 58.5276 48.3 61.7196 30.912C60.1236 27.888 57.4356 24.864 54.4956 24.864V24.024ZM149.906 25.384C147.506 25.384 143.906 26.264 143.906 31.224V75.944C143.906 80.904 147.666 81.784 150.066 81.784V82.824H129.666V81.784C132.786 81.784 135.746 81.064 135.746 76.024V54.184H109.026V76.024C109.026 81.064 112.066 81.784 115.186 81.784V82.824H94.6261V81.784C97.1061 81.784 100.866 80.904 100.866 75.944V31.304C100.866 26.344 97.1061 25.384 94.6261 25.384V24.344H115.186V25.384C112.066 25.384 109.026 26.104 109.026 31.224V53.064H135.746V31.144C135.746 26.104 132.626 25.384 129.506 25.384V24.344H149.906V25.384ZM177.492 83.58C166.488 83.58 161.028 77.28 161.028 64.512V34.692C161.028 30.66 160.188 24.864 154.98 24.864V24.024H175.308V24.864C170.016 24.864 169.428 30.66 169.428 34.692V64.512C169.428 75.096 173.88 81.06 180.852 81.06C187.74 81.06 192.192 75.096 192.192 64.512V34.692C192.192 24.864 185.472 24.864 180.264 24.864V24.024H199.752V24.864C194.46 24.864 193.872 30.66 193.872 34.692V64.512C193.872 77.28 188.412 83.58 177.492 83.58ZM207.958 72.072L209.722 34.692C209.806 33.18 209.722 31.752 209.554 30.576L208.126 26.712C207.286 25.536 206.026 24.864 204.178 24.864V24.024H216.022L233.914 73.164L251.806 24.528H263.65V25.368C259.114 25.368 258.022 29.484 258.274 35.196L260.038 72.072C260.29 77.784 262.138 81.984 266.59 81.984V82.824H246.178V81.984C250.714 81.984 251.806 77.784 251.554 72.072L249.79 35.196V35.112L232.234 82.824H228.706L211.402 35.448L209.638 72.072C209.134 81.984 219.13 81.984 223.582 81.984V82.824H201.574V81.984C206.11 81.984 207.706 77.784 207.958 72.072ZM308.569 71.988C308.569 63 307.393 60.816 299.413 60.648C296.977 66.108 295.213 71.064 295.213 75.012C295.213 79.38 297.313 81.9 301.009 81.9C305.629 81.9 308.569 78.036 308.569 71.988ZM309.409 46.788H309.661C309.661 54.936 310.669 59.052 316.213 60.144L310.417 34.776C310.333 34.44 310.249 34.104 310.081 33.684C307.813 43.008 303.109 52.332 299.581 60.396C308.149 60.312 309.409 56.616 309.409 46.788ZM301.597 24.024H313.441C316.213 24.024 317.809 25.368 318.397 28.056L327.385 72.072C328.057 75.264 331.501 81.984 336.793 81.984V82.824H314.785V81.984C319.573 81.984 319.825 75.684 318.985 72.072L316.381 60.9C311.257 61.656 310.417 64.428 310.249 71.988C310.249 78.708 306.469 83.58 301.261 83.58C296.725 83.58 293.449 79.968 293.449 75.096C293.449 65.604 305.629 48.3 308.821 30.912C307.225 27.888 304.537 24.864 301.597 24.864V24.024ZM359.028 83.58C348.024 83.58 342.564 77.28 342.564 64.512V34.692C342.564 30.66 341.724 24.864 336.516 24.864V24.024H356.844V24.864C351.552 24.864 350.964 30.66 350.964 34.692V64.512C350.964 75.096 355.416 81.06 362.388 81.06C369.276 81.06 373.728 75.096 373.728 64.512V34.692C373.728 24.864 367.008 24.864 361.8 24.864V24.024H381.288V24.864C375.996 24.864 375.408 30.66 375.408 34.692V64.512C375.408 77.28 369.948 83.58 359.028 83.58ZM433.351 70.896C430.747 78.036 422.515 83.664 411.175 83.664C393.283 83.664 382.279 70.644 382.279 53.424C382.279 36.456 395.635 23.184 412.855 23.184C424.195 23.184 431.251 28.98 437.467 28.98L427.975 52.584H427.135C428.479 47.88 430.075 43.26 430.075 38.892C430.075 30.408 424.279 25.032 415.375 25.032C401.935 25.032 391.519 37.38 391.519 53.424C391.519 69.552 399.499 81.06 414.451 81.06C424.111 81.06 433.351 73.248 433.351 66.108C433.351 61.068 420.499 56.28 406.975 56.28V55.44H435.031V82.824H434.191C434.191 82.656 433.351 70.896 433.351 70.896ZM465.012 83.58C454.008 83.58 448.548 77.28 448.548 64.512V34.692C448.548 30.66 447.708 24.864 442.5 24.864V24.024H462.828V24.864C457.536 24.864 456.948 30.66 456.948 34.692V64.512C456.948 75.096 461.4 81.06 468.372 81.06C475.26 81.06 479.712 75.096 479.712 64.512V34.692C479.712 24.864 472.992 24.864 467.784 24.864V24.024H487.272V24.864C481.98 24.864 481.392 30.66 481.392 34.692V64.512C481.392 77.28 475.932 83.58 465.012 83.58ZM530.429 63.336C530.177 61.74 529.673 60.228 528.833 58.968C525.137 53.424 518.081 50.148 512.369 46.872C506.909 43.848 503.129 37.968 503.297 31.836C503.465 27.216 507.329 22.932 511.781 21.336C522.785 17.388 535.721 23.604 535.721 23.604L534.629 36.792H533.537C532.613 22.764 518.921 19.236 513.629 22.008C510.269 23.856 509.345 28.812 510.437 32.424C511.697 36.792 515.561 39.564 519.425 41.664C523.877 44.1 528.245 46.368 531.941 49.896C536.561 54.348 538.241 60.312 537.401 65.184L530.429 63.336ZM520.937 57.624C528.833 65.1 527.993 76.944 521.525 80.808C509.765 87.78 492.881 80.136 492.881 80.136L494.057 66.948H495.065C495.653 79.968 508.001 84.084 513.545 82.236C519.341 80.304 521.189 71.652 517.829 66.612C514.133 61.152 507.161 57.792 501.365 54.6C495.989 51.492 492.209 45.696 492.293 39.648C494.897 40.404 497.501 41.076 500.105 41.664C501.701 45.108 505.061 47.46 508.421 49.308C512.873 51.744 517.241 54.012 520.937 57.624ZM558.202 72.156V25.704H553.246C545.266 25.704 543.418 46.284 543.418 52.08H542.578V24.024H582.226V52.08H581.386C581.386 46.872 579.706 25.704 571.558 25.704H566.602V72.156C566.602 76.188 567.442 81.984 572.65 81.984V82.824H552.322V81.984C557.614 81.984 558.202 76.188 558.202 72.156ZM608.285 64.512H608.033C608.033 55.86 605.597 50.904 601.733 49.56V81.144H606.689C614.837 81.144 616.517 59.976 616.517 54.768H617.357V82.824H587.453V81.984C592.745 81.984 593.333 76.104 593.333 72.072V34.692C593.333 30.66 592.493 24.864 587.285 24.864V24.024H617.357V43.68H616.517C616.517 38.472 614.837 25.704 606.689 25.704H604.673C602.153 27.468 601.733 31.584 601.733 34.692V48.72C606.017 47.628 608.033 43.26 608.033 34.02H608.285C608.285 44.436 611.141 48.972 616.517 48.972V49.14C611.477 49.224 608.285 54.18 608.285 64.512ZM658.663 25.788V57.96C664.795 50.484 674.707 46.788 674.707 37.296C674.707 27.888 667.819 25.284 660.091 25.704L658.663 25.788ZM683.947 37.296C683.947 48.384 665.719 52.08 658.663 59.808V72.072C658.663 76.104 659.503 81.984 664.711 81.984V82.824H644.383V81.984C649.675 81.984 650.263 76.104 650.263 72.072V34.692C650.263 30.66 649.423 24.864 644.215 24.864V24.024H658.663C666.307 24.024 683.947 25.704 683.947 37.296ZM711.18 24.276C715.716 24.948 718.88 26.572 720.672 29.148C722.52 31.724 723.444 34.664 723.444 37.968V78.624L714.204 82.824H713.364H712.86C710.676 82.824 709.164 83.216 708.324 84C707.484 84.784 706.952 86.352 706.728 88.704C706.504 91.056 706.392 95.312 706.392 101.472V106.848H705.972C705.972 98.952 705.888 93.492 705.72 90.468C705.552 87.5 705.132 85.428 704.46 84.252C703.844 83.076 702.724 82.236 701.1 81.732C696.34 80.668 693.12 79.016 691.44 76.776C689.816 74.536 689.004 71.904 689.004 68.88V32.676L696.396 29.988L696.732 29.904L696.312 29.988C698.888 29.092 700.848 27.636 702.192 25.62C703.536 23.548 704.488 20.524 705.048 16.548C705.664 12.572 705.972 7.056 705.972 0H706.392C706.392 7.504 706.476 12.824 706.644 15.96C706.868 19.04 707.288 21.168 707.904 22.344C708.52 23.464 709.612 24.108 711.18 24.276ZM714.204 76.104V38.976C714.204 36.736 713.784 34.804 712.944 33.18C712.104 31.556 710.144 30.744 707.064 30.744H698.244V67.872C698.244 69.384 698.496 70.7 699 71.82C699.504 72.94 700.848 73.948 703.032 74.844C705.272 75.684 708.716 76.104 713.364 76.104H714.204ZM786.673 81.228C787.429 81.48 789.361 81.732 789.529 81.732V82.824H771.973L752.737 53.592H744.589V75.6C744.589 82.068 750.385 81.732 752.737 81.732V82.824H728.461V81.732C730.561 81.732 735.853 81.984 735.853 75.684V52.5H751.981L734.341 25.704C734.341 25.704 732.157 22.512 728.545 22.512V21.42H751.897C759.037 21.42 773.821 22.932 773.821 37.38C773.821 46.2 766.429 50.736 761.809 52.5C768.781 63.252 777.769 78.54 786.673 81.228ZM759.625 49.14C762.061 47.04 763.657 43.764 763.657 37.38C763.657 28.896 761.221 22.512 751.897 22.512H742.405L759.625 49.14ZM810.202 72.156V25.704H805.246C797.266 25.704 795.418 46.284 795.418 52.08H794.578V24.024H834.226V52.08H833.386C833.386 46.872 831.706 25.704 823.558 25.704H818.602V72.156C818.602 76.188 819.442 81.984 824.65 81.984V82.824H804.322V81.984C809.614 81.984 810.202 76.188 810.202 72.156ZM883.217 21.42L884.393 37.8H883.217C881.453 26.292 872.801 22.512 865.661 22.512L853.061 22.596L868.685 46.704C869.861 44.856 870.617 42.168 870.617 39.816H871.961V63.84H870.617C870.617 57.54 866.249 52.5 859.109 52.5H855.413V75.6C855.413 81.06 859.865 81.732 863.645 81.732V82.824H839.285V81.732C842.309 81.732 846.593 80.556 846.593 75.516V51.324H859.193C860.117 51.324 860.957 51.24 861.713 51.156L844.997 25.62C844.997 25.62 843.149 22.512 839.285 22.512V21.42H883.217ZM907.634 24.024C913.682 24.024 917.882 25.396 920.234 28.14C922.642 30.884 923.846 34.16 923.846 37.968V78.624L914.606 82.824H913.766C906.99 82.824 901.81 82.152 898.226 80.808C894.642 79.464 892.262 77.784 891.086 75.768C889.966 73.752 889.406 71.456 889.406 68.88V32.676L896.798 29.988C898.646 29.316 899.962 28.42 900.746 27.3C901.586 26.18 902.006 25.088 902.006 24.024H907.634ZM914.606 76.104V38.976C914.606 36.736 914.186 34.804 913.346 33.18C912.506 31.556 910.546 30.744 907.466 30.744H898.646V67.872C898.646 69.384 898.898 70.7 899.402 71.82C899.906 72.94 901.25 73.948 903.434 74.844C905.674 75.684 909.118 76.104 913.766 76.104H914.606ZM958.935 82.824H929.031V81.984C934.323 81.984 934.911 76.104 934.911 72.072V34.692C934.911 30.66 934.071 24.864 928.863 24.864V24.024H949.191V24.864C943.899 24.864 943.311 30.66 943.311 34.692V81.144H948.267C956.415 81.144 958.095 59.976 958.095 54.768H958.935V82.824ZM978.421 34.692V72.072C978.421 77.784 980.017 81.984 984.469 81.984V82.824H964.141V81.984C968.677 81.984 970.021 77.784 970.021 72.072V34.692C970.021 28.98 968.425 24.864 963.973 24.864V24.024H984.301V24.864C979.765 24.864 978.421 28.98 978.421 34.692ZM1007.71 24.024C1013.76 24.024 1017.96 25.396 1020.31 28.14C1022.72 30.884 1023.92 34.16 1023.92 37.968V78.624L1014.68 82.824H1013.84C1007.07 82.824 1001.89 82.152 998.304 80.808C994.72 79.464 992.34 77.784 991.164 75.768C990.044 73.752 989.484 71.456 989.484 68.88V32.676L996.876 29.988C998.724 29.316 1000.04 28.42 1000.82 27.3C1001.66 26.18 1002.08 25.088 1002.08 24.024H1007.71ZM1014.68 76.104V38.976C1014.68 36.736 1014.26 34.804 1013.42 33.18C1012.58 31.556 1010.62 30.744 1007.54 30.744H998.724V67.872C998.724 69.384 998.976 70.7 999.48 71.82C999.984 72.94 1001.33 73.948 1003.51 74.844C1005.75 75.684 1009.2 76.104 1013.84 76.104H1014.68Z" fill="white"/>
</svg>
