<svg width="56" height="53" viewBox="0 0 56 53" fill="none" xmlns="http://www.w3.org/2000/svg">
<path d="M1.98601 12.9365H0.5V47.4365H23.5C27.1637 51.3186 29.0694 51.383 32.5 47.4365H55.5V12.9365H53.5" stroke="white"/>
<path d="M2.5 14.9365H0.5V49.4365H23.5C27.1637 53.3186 29.0694 53.383 32.5 49.4365H55.5V14.9365H53.5" stroke="white" stroke-opacity="0.18"/>
<path d="M30.7812 47.3105C30.0993 47.8313 29.4335 48.173 28.75 48.3057V41.5664C29.0322 41.5528 29.3118 41.5281 29.5889 41.4961L30.7812 47.3105ZM26.417 41.4629C26.6919 41.5007 26.9697 41.5292 27.25 41.5488V48.2607C26.5865 48.0938 25.925 47.7373 25.2363 47.2188L26.417 41.4629ZM36.7324 45.4365H32.7256C32.2674 45.9548 31.8247 46.4108 31.3926 46.8008L30.6855 41.3203C31.7426 41.1014 32.7495 40.7468 33.6904 40.2793L36.7324 45.4365ZM22.373 40.1719C23.2949 40.652 24.2827 41.0226 25.3213 41.2617L24.6172 46.7178C24.1886 46.3461 23.7471 45.9173 23.2871 45.4365H19.2676L22.373 40.1719ZM46.1133 45.4365H37.4775L34.6631 39.7422C35.568 39.1871 36.3955 38.5195 37.1289 37.7598L46.1133 45.4365ZM54 30.8213V45.4365H46.457L37.8691 36.9219C38.5228 36.1116 39.0757 35.2182 39.5127 34.2598L53.6416 39.8447L39.9346 33.2178C40.2695 32.2624 40.4915 31.2544 40.585 30.209L54 30.8213ZM19.0215 37.6299C19.7287 38.3837 20.5284 39.0481 21.4023 39.6084L18.5215 45.4365H9.88574L19.0215 37.6299ZM15.6875 30.1963C15.7767 31.2048 15.9844 32.1791 16.2988 33.1045L2.3584 39.8447L16.7188 34.168C17.1352 35.1014 17.6624 35.9738 18.2842 36.7695L9.54297 45.4365H2V30.8213L15.6875 30.1963ZM15.9824 26.1553C15.7604 27.0811 15.6409 28.0469 15.6377 29.04L2 30.6797V22.0586L15.9824 26.1553ZM54 30.6797L40.6367 29.0732C40.6361 28.0414 40.5098 27.0391 40.2734 26.0801L54 22.0586V30.6797ZM20.1465 19.4688C19.426 20.0683 18.7751 20.7481 18.2051 21.4932L4.55957 13.2822L17.5352 22.4619C17.0339 23.2631 16.6187 24.1238 16.3076 25.0332L2 21.9678V9.93652H13.2773L20.1465 19.4688ZM54 21.9678L39.9473 24.9785C39.6207 24.0384 39.1829 23.151 38.6533 22.3281L51.4404 13.2822L37.9805 21.3809C37.3855 20.6214 36.7054 19.9328 35.9531 19.3291L42.7227 9.93652H54V21.9678ZM23.5479 17.4541C22.6766 17.7983 21.8525 18.2353 21.0898 18.7568L13.6855 9.93652H21.2744L23.5479 17.4541ZM35.0068 18.6396C34.2217 18.122 33.3758 17.6892 32.4805 17.3574L34.7256 9.93652H42.3135L35.0068 18.6396ZM23.8633 10.0938C25.261 11.5748 26.325 12.4033 27.25 12.7197V16.6123C26.3608 16.6747 25.4972 16.8297 24.6689 17.0684L21.9219 9.93652H23.7158L23.8633 10.0938ZM31.3564 17C30.5189 16.7774 29.6469 16.639 28.75 16.5957V12.7822C29.6889 12.5261 30.7376 11.7021 32.123 10.1084L32.2725 9.93652H34.0781L31.3564 17Z" fill="white"/>
<path d="M15.2354 28.9365H2V25.0586L15.2354 28.9365ZM54 28.9365H40.7637L54 25.0586V28.9365ZM20.1465 22.4688C19.426 23.0683 18.7751 23.7481 18.2051 24.4932L4.55957 16.2822L17.5352 25.4619C17.0339 26.2631 16.6187 27.1238 16.3076 28.0332L2 24.9678V12.9365H13.2773L20.1465 22.4688ZM54 24.9678L39.9473 27.9785C39.6207 27.0384 39.1829 26.151 38.6533 25.3281L51.4404 16.2822L37.9805 24.3809C37.3855 23.6214 36.7054 22.9328 35.9531 22.3291L42.7227 12.9365H54V24.9678ZM23.5479 20.4541C22.6766 20.7983 21.8525 21.2353 21.0898 21.7568L13.6855 12.9365H21.2744L23.5479 20.4541ZM35.0068 21.6396C34.2217 21.122 33.3758 20.6892 32.4805 20.3574L34.7256 12.9365H42.3135L35.0068 21.6396ZM23.8633 13.0938C25.261 14.5748 26.325 15.4033 27.25 15.7197V19.6123C26.3608 19.6747 25.4972 19.8297 24.6689 20.0684L21.9219 12.9365H23.7158L23.8633 13.0938ZM31.3564 20C30.5189 19.7774 29.6469 19.639 28.75 19.5957V15.7822C29.6889 15.5261 30.7376 14.7021 32.123 13.1084L32.2725 12.9365H34.0781L31.3564 20Z" fill="white" fill-opacity="0.17"/>
<g filter="url(#filter0_di_70_67)">
<path fill-rule="evenodd" clip-rule="evenodd" d="M28.0001 25.9145C28.0462 27.1918 28.3546 27.7395 29.3413 28.4561C28.3548 29.1727 28.0462 29.4217 28.0001 30.3973C27.9539 29.4217 27.6454 29.1727 26.6588 28.4561C27.6455 27.7395 27.9539 27.1918 28.0001 25.9145ZM28.0001 27.2538C27.9782 27.8597 27.8319 28.1195 27.3639 28.4594C27.8318 28.7993 27.9782 28.9176 28.0001 29.3804C28.022 28.9176 28.1683 28.7993 28.6362 28.4594C28.1682 28.1195 28.022 27.8597 28.0001 27.2538Z" fill="white"/>
<path d="M28 45.2595C27.8796 42.0843 27.0752 36.5447 24.502 34.7634C27.0752 32.982 27.8796 33.7559 28 31.3304C28.1204 33.7559 28.9249 32.982 31.498 34.7634C28.9249 36.5447 28.1204 42.0843 28 45.2595Z" fill="white"/>
<path d="M31.4283 28.573C32.0685 29.2182 32.8179 29.7555 33.6938 30.128C29.5054 31.9093 28.196 31.1354 28 33.5609C27.8041 31.1354 26.4946 31.9093 22.3063 30.128C23.1821 29.7555 23.9312 29.2181 24.5713 28.573C26.9939 29.3362 27.845 29.2543 28 31.173C28.1551 29.2545 29.0061 29.3361 31.4283 28.573Z" fill="white"/>
<path d="M28 0C27.6934 5.66098 25.6447 15.5377 19.0918 18.7136C25.6447 21.8896 27.6934 20.5098 28 24.8342C28.3066 20.5098 30.3553 21.8896 36.9082 18.7136C30.3553 15.5377 28.3066 5.66098 28 0Z" fill="white"/>
<path d="M36.7306 29.7505C38.361 28.6001 40.2695 27.6422 42.5 26.9781C31.8337 23.8022 28.4991 25.1819 28 20.8576C27.5009 25.1819 24.1663 23.8022 13.5 26.9781C15.7303 27.6422 17.638 28.6003 19.2683 29.7505C25.4376 28.3898 27.6052 28.5357 28 25.1149C28.3948 28.5355 30.562 28.39 36.7306 29.7505Z" fill="white"/>
</g>
<defs>
<filter id="filter0_di_70_67" x="13.5" y="-1" width="29" height="47.2595" filterUnits="userSpaceOnUse" color-interpolation-filters="sRGB">
<feFlood flood-opacity="0" result="BackgroundImageFix"/>
<feColorMatrix in="SourceAlpha" type="matrix" values="0 0 0 0 0 0 0 0 0 0 0 0 0 0 0 0 0 0 127 0" result="hardAlpha"/>
<feOffset dy="1"/>
<feComposite in2="hardAlpha" operator="out"/>
<feColorMatrix type="matrix" values="0 0 0 0 1 0 0 0 0 1 0 0 0 0 1 0 0 0 0.15 0"/>
<feBlend mode="normal" in2="BackgroundImageFix" result="effect1_dropShadow_70_67"/>
<feBlend mode="normal" in="SourceGraphic" in2="effect1_dropShadow_70_67" result="shape"/>
<feColorMatrix in="SourceAlpha" type="matrix" values="0 0 0 0 0 0 0 0 0 0 0 0 0 0 0 0 0 0 127 0" result="hardAlpha"/>
<feOffset dy="-1"/>
<feGaussianBlur stdDeviation="0.6"/>
<feComposite in2="hardAlpha" operator="arithmetic" k2="-1" k3="1"/>
<feColorMatrix type="matrix" values="0 0 0 0 1 0 0 0 0 1 0 0 0 0 1 0 0 0 0.59 0"/>
<feBlend mode="normal" in2="shape" result="effect2_innerShadow_70_67"/>
</filter>
</defs>
</svg>
